<svg xmlns="http://www.w3.org/2000/svg" viewBox="0 0 40 40">
  <defs>
    <linearGradient id="logoGradient" x1="0" y1="0" x2="40" y2="40">
      <stop offset="0%" stop-color="#2563EB"/>
      <stop offset="100%" stop-color="#60A5FA"/>
    </linearGradient>
  </defs>

  <!-- Scaled + Centered Logo -->
  <g transform="translate(4,4) scale(0.8)">
    
    <path
      fill="url(#logoGradient)"
      fill-rule="evenodd"
      d="M16.011 20.03c-1.807 1.989-2.52 4.901 1.391 6.798 5.51 2.672 18.958 9.383 24.763 12.104 5.36 2.513 5.69-.752 4.662-5.46l-6.13-28.203C39.752 1.302 38.419.31 36.956.205c-2.089-.15-4.488 2.017-6.731 4.342C26.459 8.442 18.235 17.59 16.01 20.03z"
      clip-rule="evenodd"
    />

    <path
      fill="#ffffff"
      fill-rule="evenodd"
      d="M31.276 20.03c1.808 1.988 2.52 4.896-1.39 6.793-1.561.756-3.761 1.84-6.242 3.062a1159.767 1159.767 0 00-6.242-3.062c-3.91-1.897-3.198-4.81-1.39-6.793 1.254-1.382 4.429-4.9 7.632-8.406 3.203 3.505 6.377 7.03 7.632 8.406z"
      clip-rule="evenodd"
    />

    <path
      fill="url(#logoGradient)"
      opacity="0.5"
      fill-rule="evenodd"
      d="M31.28 20.03c1.807 1.989 2.52 4.901-1.392 6.798-5.51 2.672-18.957 9.384-24.763 12.104-5.36 2.513-5.689-.751-4.662-5.46L6.593 5.27C7.54 1.302 8.872.31 10.336.205c2.088-.15 4.487 2.017 6.73 4.342C20.832 8.442 29.056 17.59 31.28 20.03z"
      clip-rule="evenodd"
    />

  </g>
</svg>